<svg xmlns="http://www.w3.org/2000/svg" viewBox="0 0 1600 900" width="1600" height="900"><defs><linearGradient id="s" x1="0" y1="0" x2="0" y2="1"><stop offset="0" stop-color="#0f1730"/><stop offset="0.5" stop-color="#1f2a4a"/><stop offset="0.8" stop-color="#3a3a5c"/><stop offset="1" stop-color="#5a4a62"/></linearGradient></defs><rect width="1600" height="900" fill="url(#s)"/><circle cx="116.4" cy="61.8" r="0.6" fill="#f6ead2" opacity="0.54"/><circle cx="749.6" cy="117.0" r="0.9" fill="#f6ead2" opacity="0.86"/><circle cx="1567.2" cy="132.5" r="0.6" fill="#f6ead2" opacity="0.44"/><circle cx="1368.2" cy="87.8" r="0.6" fill="#f6ead2" opacity="0.84"/><circle cx="1465.9" cy="264.6" r="0.6" fill="#f6ead2" opacity="0.59"/><circle cx="691.3" cy="230.5" r="0.7" fill="#f6ead2" opacity="0.50"/><circle cx="1254.0" cy="390.9" r="0.6" fill="#f6ead2" opacity="0.50"/><circle cx="1310.7" cy="189.6" r="0.6" fill="#f6ead2" opacity="0.67"/><circle cx="341.4" cy="132.4" r="0.7" fill="#f6ead2" opacity="0.81"/><circle cx="826.6" cy="229.3" r="0.7" fill="#f6ead2" opacity="0.68"/><circle cx="1567.3" cy="192.3" r="0.6" fill="#f6ead2" opacity="0.43"/><circle cx="995.1" cy="392.2" r="1.4" fill="#f6ead2" opacity="0.42"/><circle cx="989.0" cy="228.6" r="0.9" fill="#f6ead2" opacity="0.52"/><circle cx="1370.1" cy="20.7" r="0.5" fill="#f6ead2" opacity="0.43"/><circle cx="470.4" cy="279.7" r="0.6" fill="#f6ead2" opacity="0.50"/><circle cx="75.0" cy="161.8" r="0.5" fill="#f6ead2" opacity="0.59"/><circle cx="1201.0" cy="245.7" r="1.1" fill="#f6ead2" opacity="0.51"/><circle cx="1397.0" cy="368.5" r="0.6" fill="#f6ead2" opacity="0.60"/><circle cx="241.8" cy="292.3" r="1.0" fill="#f6ead2" opacity="0.60"/><circle cx="413.2" cy="32.0" r="0.5" fill="#f6ead2" opacity="0.89"/><circle cx="794.3" cy="185.9" r="0.6" fill="#f6ead2" opacity="0.56"/><circle cx="1123.0" cy="305.2" r="0.6" fill="#f6ead2" opacity="0.64"/><circle cx="602.8" cy="215.6" r="0.7" fill="#f6ead2" opacity="0.54"/><circle cx="1589.1" cy="58.2" r="0.9" fill="#f6ead2" opacity="0.83"/><circle cx="1282.2" cy="67.8" r="1.0" fill="#f6ead2" opacity="0.40"/><circle cx="296.7" cy="295.2" r="1.0" fill="#f6ead2" opacity="0.44"/><circle cx="894.5" cy="200.3" r="1.3" fill="#f6ead2" opacity="0.65"/><circle cx="723.4" cy="376.6" r="1.0" fill="#f6ead2" opacity="0.49"/><circle cx="1036.2" cy="247.1" r="1.3" fill="#f6ead2" opacity="0.59"/><circle cx="1181.9" cy="74.7" r="0.5" fill="#f6ead2" opacity="0.71"/><circle cx="102.0" cy="141.8" r="0.6" fill="#f6ead2" opacity="0.46"/><circle cx="186.4" cy="106.9" r="0.7" fill="#f6ead2" opacity="0.51"/><circle cx="1459.2" cy="359.7" r="0.6" fill="#f6ead2" opacity="0.54"/><circle cx="258.8" cy="210.2" r="0.9" fill="#f6ead2" opacity="0.42"/><circle cx="1499.9" cy="310.0" r="0.7" fill="#f6ead2" opacity="0.64"/><circle cx="1250.2" cy="204.6" r="0.6" fill="#f6ead2" opacity="0.69"/><circle cx="451.5" cy="198.7" r="0.5" fill="#f6ead2" opacity="0.78"/><circle cx="854.2" cy="150.8" r="0.5" fill="#f6ead2" opacity="0.52"/><circle cx="1047.8" cy="406.1" r="1.0" fill="#f6ead2" opacity="0.53"/><circle cx="1562.7" cy="167.0" r="0.9" fill="#f6ead2" opacity="0.45"/><circle cx="122.9" cy="99.2" r="0.5" fill="#f6ead2" opacity="0.59"/><circle cx="400.6" cy="212.9" r="0.8" fill="#f6ead2" opacity="0.44"/><circle cx="354.0" cy="44.3" r="0.9" fill="#f6ead2" opacity="0.51"/><circle cx="385.1" cy="117.0" r="1.0" fill="#f6ead2" opacity="0.59"/><circle cx="1375.6" cy="128.8" r="0.7" fill="#f6ead2" opacity="0.63"/><circle cx="1300.1" cy="171.8" r="0.5" fill="#f6ead2" opacity="0.42"/><circle cx="1504.6" cy="292.2" r="0.9" fill="#f6ead2" opacity="0.40"/><circle cx="585.7" cy="76.3" r="1.0" fill="#f6ead2" opacity="0.85"/><circle cx="886.5" cy="260.8" r="1.0" fill="#f6ead2" opacity="0.68"/><circle cx="337.3" cy="7.2" r="0.8" fill="#f6ead2" opacity="0.66"/><circle cx="492.5" cy="197.5" r="0.6" fill="#f6ead2" opacity="0.72"/><circle cx="110.5" cy="259.8" r="0.5" fill="#f6ead2" opacity="0.44"/><circle cx="1231.9" cy="111.3" r="0.6" fill="#f6ead2" opacity="0.47"/><circle cx="732.6" cy="279.8" r="0.7" fill="#f6ead2" opacity="0.44"/><circle cx="214.0" cy="151.4" r="0.5" fill="#f6ead2" opacity="0.41"/><circle cx="1422.7" cy="389.9" r="1.3" fill="#f6ead2" opacity="0.51"/><circle cx="533.0" cy="129.5" r="1.1" fill="#f6ead2" opacity="0.77"/><circle cx="743.8" cy="183.7" r="0.6" fill="#f6ead2" opacity="0.43"/><circle cx="14.6" cy="282.5" r="0.6" fill="#f6ead2" opacity="0.60"/><circle cx="331.4" cy="110.2" r="1.1" fill="#f6ead2" opacity="0.55"/><circle cx="1544.9" cy="90.4" r="0.8" fill="#f6ead2" opacity="0.47"/><circle cx="1465.1" cy="380.6" r="1.1" fill="#f6ead2" opacity="0.48"/><circle cx="624.0" cy="41.8" r="0.5" fill="#f6ead2" opacity="0.87"/><circle cx="803.7" cy="253.8" r="0.9" fill="#f6ead2" opacity="0.42"/><circle cx="1370.4" cy="1.2" r="0.6" fill="#f6ead2" opacity="0.57"/><circle cx="986.4" cy="125.0" r="0.8" fill="#f6ead2" opacity="0.82"/><circle cx="1592.7" cy="207.2" r="0.7" fill="#f6ead2" opacity="0.61"/><circle cx="634.6" cy="398.1" r="0.9" fill="#f6ead2" opacity="0.57"/><circle cx="1054.8" cy="56.4" r="1.2" fill="#f6ead2" opacity="0.43"/><circle cx="1414.8" cy="394.4" r="1.7" fill="#f6ead2" opacity="0.58"/><circle cx="285.2" cy="111.8" r="0.5" fill="#f6ead2" opacity="0.80"/><circle cx="388.0" cy="412.9" r="0.8" fill="#f6ead2" opacity="0.47"/><circle cx="1049.4" cy="303.9" r="0.8" fill="#f6ead2" opacity="0.52"/><circle cx="1405.4" cy="287.8" r="0.5" fill="#f6ead2" opacity="0.68"/><circle cx="764.4" cy="119.4" r="0.8" fill="#f6ead2" opacity="0.79"/><circle cx="1128.1" cy="253.2" r="0.6" fill="#f6ead2" opacity="0.46"/><circle cx="1266.3" cy="25.5" r="0.5" fill="#f6ead2" opacity="0.49"/><circle cx="1552.1" cy="202.5" r="0.5" fill="#f6ead2" opacity="0.64"/><circle cx="58.0" cy="284.0" r="1.2" fill="#f6ead2" opacity="0.55"/><circle cx="776.6" cy="163.8" r="1.3" fill="#f6ead2" opacity="0.73"/><circle cx="1522.1" cy="180.7" r="0.8" fill="#f6ead2" opacity="0.66"/><circle cx="928.3" cy="408.3" r="0.6" fill="#f6ead2" opacity="0.56"/><circle cx="659.3" cy="367.9" r="0.5" fill="#f6ead2" opacity="0.48"/><circle cx="1289.5" cy="143.6" r="0.5" fill="#f6ead2" opacity="0.72"/><circle cx="768.2" cy="304.9" r="0.5" fill="#f6ead2" opacity="0.57"/><circle cx="84.6" cy="398.9" r="1.2" fill="#f6ead2" opacity="0.55"/><circle cx="683.2" cy="313.5" r="0.6" fill="#f6ead2" opacity="0.42"/><circle cx="642.5" cy="316.6" r="0.5" fill="#f6ead2" opacity="0.59"/><circle cx="1119.1" cy="110.4" r="0.6" fill="#f6ead2" opacity="0.80"/><circle cx="95.3" cy="177.3" r="1.1" fill="#f6ead2" opacity="0.81"/><circle cx="1368.8" cy="295.0" r="0.7" fill="#f6ead2" opacity="0.66"/><circle cx="610.6" cy="408.8" r="0.6" fill="#f6ead2" opacity="0.49"/><circle cx="633.2" cy="321.6" r="1.0" fill="#f6ead2" opacity="0.44"/><circle cx="123.1" cy="96.6" r="1.2" fill="#f6ead2" opacity="0.83"/><circle cx="588.7" cy="392.9" r="0.9" fill="#f6ead2" opacity="0.50"/><circle cx="1028.9" cy="158.8" r="0.6" fill="#f6ead2" opacity="0.69"/><circle cx="629.3" cy="31.2" r="0.9" fill="#f6ead2" opacity="0.49"/><circle cx="553.5" cy="105.8" r="1.0" fill="#f6ead2" opacity="0.53"/><circle cx="1349.1" cy="91.3" r="0.5" fill="#f6ead2" opacity="0.56"/><circle cx="15.1" cy="213.1" r="1.0" fill="#f6ead2" opacity="0.49"/><circle cx="72.6" cy="171.6" r="0.5" fill="#f6ead2" opacity="0.63"/><circle cx="1531.8" cy="75.0" r="1.0" fill="#f6ead2" opacity="0.65"/><circle cx="990.8" cy="233.1" r="1.0" fill="#f6ead2" opacity="0.59"/><circle cx="707.4" cy="357.9" r="0.9" fill="#f6ead2" opacity="0.43"/><circle cx="39.2" cy="237.4" r="0.9" fill="#f6ead2" opacity="0.70"/><circle cx="67.9" cy="126.1" r="1.7" fill="#f6ead2" opacity="0.42"/><circle cx="159.5" cy="332.9" r="0.5" fill="#f6ead2" opacity="0.51"/><circle cx="230.8" cy="104.6" r="0.6" fill="#f6ead2" opacity="0.71"/><circle cx="1388.6" cy="120.1" r="0.5" fill="#f6ead2" opacity="0.75"/><circle cx="698.1" cy="87.1" r="0.7" fill="#f6ead2" opacity="0.83"/><circle cx="1339.1" cy="14.7" r="0.6" fill="#f6ead2" opacity="0.89"/><circle cx="954.4" cy="16.3" r="1.0" fill="#f6ead2" opacity="0.66"/><circle cx="1219.5" cy="196.5" r="1.2" fill="#f6ead2" opacity="0.54"/><circle cx="456.2" cy="133.7" r="0.6" fill="#f6ead2" opacity="0.44"/><circle cx="1316.9" cy="344.8" r="0.5" fill="#f6ead2" opacity="0.63"/><circle cx="116.5" cy="370.1" r="1.6" fill="#f6ead2" opacity="0.44"/><circle cx="256.2" cy="77.5" r="1.7" fill="#f6ead2" opacity="0.56"/><circle cx="904.5" cy="355.3" r="0.5" fill="#f6ead2" opacity="0.41"/><circle cx="1315.2" cy="174.3" r="0.7" fill="#f6ead2" opacity="0.78"/><circle cx="644.2" cy="230.4" r="0.6" fill="#f6ead2" opacity="0.48"/><circle cx="1219.9" cy="212.8" r="1.1" fill="#f6ead2" opacity="0.72"/><circle cx="883.5" cy="385.2" r="0.7" fill="#f6ead2" opacity="0.40"/><circle cx="987.5" cy="397.3" r="0.9" fill="#f6ead2" opacity="0.55"/><circle cx="993.1" cy="240.2" r="0.8" fill="#f6ead2" opacity="0.52"/><circle cx="1009.4" cy="182.4" r="0.6" fill="#f6ead2" opacity="0.73"/><circle cx="269.8" cy="339.0" r="0.6" fill="#f6ead2" opacity="0.45"/><circle cx="1114.6" cy="344.9" r="1.3" fill="#f6ead2" opacity="0.42"/><circle cx="520.7" cy="20.8" r="0.7" fill="#f6ead2" opacity="0.69"/><circle cx="112.6" cy="245.4" r="0.5" fill="#f6ead2" opacity="0.65"/><circle cx="1139.0" cy="388.5" r="1.0" fill="#f6ead2" opacity="0.48"/><circle cx="776.9" cy="347.6" r="0.8" fill="#f6ead2" opacity="0.41"/><circle cx="51.2" cy="314.8" r="0.6" fill="#f6ead2" opacity="0.54"/><circle cx="56.0" cy="13.7" r="1.0" fill="#f6ead2" opacity="0.66"/><circle cx="1227.5" cy="409.8" r="0.7" fill="#f6ead2" opacity="0.44"/><circle cx="292.3" cy="263.6" r="1.3" fill="#f6ead2" opacity="0.55"/><circle cx="1203.8" cy="11.0" r="0.6" fill="#f6ead2" opacity="0.79"/><circle cx="85.8" cy="93.5" r="0.8" fill="#f6ead2" opacity="0.49"/><circle cx="1418.8" cy="288.2" r="0.5" fill="#f6ead2" opacity="0.46"/><circle cx="1160.4" cy="384.9" r="0.6" fill="#f6ead2" opacity="0.42"/><circle cx="1307.4" cy="394.8" r="0.6" fill="#f6ead2" opacity="0.56"/><circle cx="1079.3" cy="389.8" r="0.5" fill="#f6ead2" opacity="0.41"/><circle cx="863.8" cy="304.5" r="0.5" fill="#f6ead2" opacity="0.66"/><circle cx="317.3" cy="405.0" r="0.6" fill="#f6ead2" opacity="0.56"/><circle cx="761.8" cy="285.6" r="0.8" fill="#f6ead2" opacity="0.67"/><circle cx="1463.7" cy="270.9" r="1.1" fill="#f6ead2" opacity="0.52"/><circle cx="95.9" cy="224.8" r="0.6" fill="#f6ead2" opacity="0.74"/><circle cx="791.9" cy="227.8" r="1.1" fill="#f6ead2" opacity="0.48"/><circle cx="1299.0" cy="396.4" r="1.9" fill="#f6ead2" opacity="0.55"/><circle cx="521.4" cy="113.6" r="0.6" fill="#f6ead2" opacity="0.87"/><circle cx="56.7" cy="348.2" r="1.2" fill="#f6ead2" opacity="0.57"/><circle cx="72.2" cy="364.6" r="1.0" fill="#f6ead2" opacity="0.41"/><circle cx="469.7" cy="108.2" r="0.5" fill="#f6ead2" opacity="0.63"/><circle cx="1287.4" cy="390.2" r="0.6" fill="#f6ead2" opacity="0.49"/><circle cx="220.6" cy="302.9" r="0.7" fill="#f6ead2" opacity="0.43"/><circle cx="688.7" cy="407.8" r="1.0" fill="#f6ead2" opacity="0.49"/><circle cx="722.9" cy="255.3" r="0.5" fill="#f6ead2" opacity="0.64"/><circle cx="609.9" cy="316.1" r="0.6" fill="#f6ead2" opacity="0.63"/><circle cx="8.7" cy="239.4" r="1.2" fill="#f6ead2" opacity="0.60"/><circle cx="16.0" cy="316.6" r="0.9" fill="#f6ead2" opacity="0.64"/><circle cx="1575.7" cy="416.8" r="0.7" fill="#f6ead2" opacity="0.54"/><defs><radialGradient id="glow"><stop offset="0" stop-color="#f3e3bf" stop-opacity="0.28"/><stop offset="1" stop-color="#f3e3bf" stop-opacity="0"/></radialGradient></defs><circle cx="260" cy="150" r="130" fill="url(#glow)"/><circle cx="260" cy="150" r="26" fill="#f1e2c0"/><circle cx="270.92" cy="145.32" r="23.92" fill="#121a35"/><path d="M0 900 L0 500.3 L16 496.6 L32 489.6 L48 488.5 L64 482.1 L80 481.6 L96 475.3 L112 474.3 L128 471.7 L144 457.6 L160 458.3 L176 445.5 L192 442.4 L208 432.8 L224 420.6 L240 417.4 L256 416.4 L272 413.3 L288 400.4 L304 399.1 L320 395.9 L336 396.7 L352 402.0 L368 400.3 L384 404.8 L400 405.7 L416 413.9 L432 419.6 L448 417.8 L464 433.1 L480 438.4 L496 441.3 L512 442.9 L528 446.6 L544 458.3 L560 458.6 L576 464.0 L592 464.7 L608 465.2 L624 462.2 L640 460.0 L656 469.5 L672 467.4 L688 461.7 L704 465.8 L720 460.4 L736 461.8 L752 463.9 L768 456.7 L784 460.8 L800 456.8 L816 459.7 L832 456.0 L848 465.1 L864 466.8 L880 467.4 L896 463.3 L912 470.7 L928 466.8 L944 468.9 L960 473.1 L976 474.0 L992 478.0 L1008 475.5 L1024 472.9 L1040 479.9 L1056 478.9 L1072 476.6 L1088 479.1 L1104 482.5 L1120 479.7 L1136 476.4 L1152 477.8 L1168 482.3 L1184 489.0 L1200 486.9 L1216 490.7 L1232 500.1 L1248 502.2 L1264 513.8 L1280 513.2 L1296 519.1 L1312 531.7 L1328 533.2 L1344 543.2 L1360 542.2 L1376 547.7 L1392 548.8 L1408 550.5 L1424 553.3 L1440 550.3 L1456 557.2 L1472 554.3 L1488 543.9 L1504 540.4 L1520 538.4 L1536 530.5 L1552 528.0 L1568 517.0 L1584 516.0 L1600 509.2 L1600 900 Z" fill="#2a2c47"/><rect x="-20.0" y="553.0" width="51.1" height="120.9" fill="#1a1c2f"/><rect x="3.4" y="565.9" width="6" height="10" fill="#e9b566" opacity="0.86"/><rect x="34.7" y="576.1" width="122.3" height="110.1" fill="#1a1c2f"/><rect x="166.7" y="605.3" width="92.4" height="79.3" fill="#1a1c2f"/><rect x="217.5" y="593.3" width="27.7" height="14" fill="#1a1c2f"/><rect x="262.0" y="564.6" width="121.7" height="119.5" fill="#1a1c2f"/><rect x="328.9" y="552.6" width="36.5" height="14" fill="#1a1c2f"/><rect x="385.8" y="607.5" width="57.0" height="74.4" fill="#1a1c2f"/><rect x="417.1" y="595.5" width="17.1" height="14" fill="#1a1c2f"/><rect x="421.0" y="623.1" width="6" height="10" fill="#e9b566" opacity="0.87"/><rect x="450.8" y="557.1" width="54.6" height="129.1" fill="#1a1c2f"/><rect x="480.9" y="545.1" width="16.4" height="14" fill="#1a1c2f"/><rect x="467.1" y="572.1" width="6" height="10" fill="#e9b566" opacity="0.91"/><rect x="502.4" y="581.2" width="111.1" height="103.9" fill="#1a1c2f"/><rect x="593.7" y="604.1" width="6" height="10" fill="#e9b566" opacity="0.89"/><rect x="621.5" y="574.3" width="72.2" height="110.0" fill="#1a1c2f"/><rect x="690.2" y="613.7" width="96.5" height="71.9" fill="#1a1c2f"/><rect x="743.3" y="601.7" width="29.0" height="14" fill="#1a1c2f"/><rect x="785.3" y="583.6" width="62.5" height="98.8" fill="#1a1c2f"/><rect x="819.7" y="571.6" width="18.7" height="14" fill="#1a1c2f"/><rect x="803.1" y="601.5" width="6" height="10" fill="#e9b566" opacity="0.56"/><rect x="853.6" y="598.3" width="61.3" height="85.0" fill="#1a1c2f"/><rect x="887.4" y="586.3" width="18.4" height="14" fill="#1a1c2f"/><rect x="914.9" y="548.0" width="93.1" height="131.9" fill="#1a1c2f"/><rect x="966.1" y="536.0" width="27.9" height="14" fill="#1a1c2f"/><rect x="1017.9" y="606.1" width="116.0" height="76.5" fill="#1a1c2f"/><rect x="1081.8" y="594.1" width="34.8" height="14" fill="#1a1c2f"/><rect x="1130.8" y="608.0" width="50.1" height="77.8" fill="#1a1c2f"/><rect x="1158.3" y="596.0" width="15.0" height="14" fill="#1a1c2f"/><rect x="1182.0" y="595.4" width="64.4" height="83.1" fill="#1a1c2f"/><rect x="1217.5" y="583.4" width="19.3" height="14" fill="#1a1c2f"/><rect x="1195.3" y="618.7" width="6" height="10" fill="#e9b566" opacity="0.78"/><rect x="1251.1" y="592.0" width="74.1" height="89.3" fill="#1a1c2f"/><rect x="1276.8" y="609.0" width="6" height="10" fill="#e9b566" opacity="0.77"/><rect x="1326.5" y="598.3" width="80.6" height="86.5" fill="#1a1c2f"/><rect x="1370.8" y="586.3" width="24.2" height="14" fill="#1a1c2f"/><rect x="1341.5" y="612.5" width="6" height="10" fill="#e9b566" opacity="0.88"/><rect x="1407.3" y="608.2" width="76.0" height="70.8" fill="#1a1c2f"/><rect x="1488.3" y="557.9" width="73.8" height="123.4" fill="#1a1c2f"/><rect x="1507.8" y="573.2" width="6" height="10" fill="#e9b566" opacity="0.78"/><rect x="1560.9" y="598.6" width="79.1" height="81.2" fill="#1a1c2f"/><rect x="1604.4" y="586.6" width="23.7" height="14" fill="#1a1c2f"/><rect x="-40.0" y="716.3" width="66.7" height="111.3" fill="#10111c"/><rect x="-3.3" y="704.3" width="20.0" height="14" fill="#10111c"/><rect x="-1.8" y="735.0" width="6" height="10" fill="#e9b566" opacity="0.85"/><rect x="36.4" y="760.5" width="80.5" height="76.4" fill="#10111c"/><rect x="57.5" y="783.4" width="6" height="10" fill="#e9b566" opacity="0.83"/><rect x="122.5" y="705.8" width="96.4" height="123.4" fill="#10111c"/><rect x="154.8" y="728.4" width="6" height="10" fill="#e9b566" opacity="0.66"/><rect x="216.8" y="747.2" width="79.4" height="87.2" fill="#10111c"/><rect x="260.5" y="735.2" width="23.8" height="14" fill="#10111c"/><rect x="274.8" y="761.9" width="6" height="10" fill="#e9b566" opacity="0.80"/><rect x="299.7" y="743.4" width="112.2" height="81.1" fill="#10111c"/><rect x="361.4" y="731.4" width="33.7" height="14" fill="#10111c"/><rect x="414.0" y="735.4" width="63.2" height="90.6" fill="#10111c"/><rect x="448.8" y="723.4" width="19.0" height="14" fill="#10111c"/><rect x="430.6" y="756.9" width="6" height="10" fill="#e9b566" opacity="0.65"/><rect x="473.7" y="714.3" width="46.2" height="116.9" fill="#10111c"/><rect x="502.0" y="731.4" width="6" height="10" fill="#e9b566" opacity="0.85"/><rect x="517.6" y="727.0" width="119.7" height="105.8" fill="#10111c"/><rect x="583.4" y="715.0" width="35.9" height="14" fill="#10111c"/><rect x="581.1" y="742.2" width="6" height="10" fill="#e9b566" opacity="0.58"/><rect x="646.0" y="713.8" width="62.8" height="120.6" fill="#10111c"/><rect x="680.6" y="701.8" width="18.8" height="14" fill="#10111c"/><rect x="708.3" y="742.3" width="77.3" height="84.6" fill="#10111c"/><rect x="750.8" y="730.3" width="23.2" height="14" fill="#10111c"/><rect x="791.2" y="729.3" width="83.3" height="98.4" fill="#10111c"/><rect x="829.9" y="747.2" width="6" height="10" fill="#e9b566" opacity="0.70"/><rect x="876.9" y="723.6" width="119.5" height="106.1" fill="#10111c"/><rect x="942.6" y="711.6" width="35.8" height="14" fill="#10111c"/><rect x="993.2" y="707.0" width="115.4" height="129.6" fill="#10111c"/><rect x="1073.9" y="730.3" width="6" height="10" fill="#e9b566" opacity="0.69"/><rect x="1117.8" y="733.0" width="121.8" height="100.8" fill="#10111c"/><rect x="1244.0" y="740.5" width="77.2" height="84.8" fill="#10111c"/><rect x="1288.8" y="754.0" width="6" height="10" fill="#e9b566" opacity="0.87"/><rect x="1317.4" y="695.8" width="87.2" height="129.4" fill="#10111c"/><rect x="1411.8" y="754.9" width="99.3" height="77.4" fill="#10111c"/><rect x="1482.7" y="775.6" width="6" height="10" fill="#e9b566" opacity="0.60"/><rect x="1517.0" y="730.7" width="57.9" height="98.2" fill="#10111c"/><rect x="1548.9" y="718.7" width="17.4" height="14" fill="#10111c"/><rect x="1533.3" y="747.0" width="6" height="10" fill="#e9b566" opacity="0.89"/><rect x="1582.0" y="706.3" width="92.0" height="123.0" fill="#10111c"/><rect x="1632.6" y="694.3" width="27.6" height="14" fill="#10111c"/><rect x="1651.6" y="729.0" width="6" height="10" fill="#e9b566" opacity="0.77"/><rect y="800" width="1600" height="100" fill="#0b0c14"/></svg>
